<mxfile host="Electron" modified="2024-02-18T23:03:07.588Z" agent="Mozilla/5.0 (X11; Linux x86_64) AppleWebKit/537.36 (KHTML, like Gecko) draw.io/22.1.16 Chrome/120.0.6099.109 Electron/28.1.0 Safari/537.36" etag="yZAjXu9sCI_NBCP9Z1da" version="22.1.16" type="device">
  <diagram name="Page-1" id="-BOC7ToDGs07M_UjUGkJ">
    <mxGraphModel dx="2000" dy="1203" grid="0" gridSize="10" guides="1" tooltips="1" connect="1" arrows="1" fold="1" page="1" pageScale="1" pageWidth="1654" pageHeight="1169" background="#000000" math="0" shadow="0">
      <root>
        <mxCell id="0" />
        <mxCell id="1" parent="0" />
        <mxCell id="DM7TyOLoBujSXzGujDjC-1" value="&lt;div&gt;Initialization:&lt;/div&gt;&lt;div&gt;&lt;br&gt;&lt;/div&gt;&lt;div&gt;Instantiate necessary components including NeuralSignalSubscriber for incoming and outgoing signals, GameEventMonitor for game events, ActionSuccessLogger for logging action outcomes, FeedbackSystem for providing audio feedback and activating the feeder, and DynamicSignalDecoder for adjusting signal mappings based on feedback.&lt;/div&gt;" style="rounded=1;whiteSpace=wrap;html=1;" vertex="1" parent="1">
          <mxGeometry x="114" y="224.5" width="400" height="147" as="geometry" />
        </mxCell>
        <mxCell id="DM7TyOLoBujSXzGujDjC-2" value="&lt;div&gt;Main Loop Execution (GameController.run()):&lt;/div&gt;&lt;div&gt;&lt;br&gt;&lt;/div&gt;&lt;div&gt;Continuously poll for new game events using GameEventMonitor.&lt;/div&gt;&lt;div&gt;Retrieve incoming neural signals and outgoing signals using instances of NeuralSignalSubscriber.&lt;/div&gt;&lt;div&gt;For each game event detected, provide appropriate feedback through FeedbackSystem, which may involve playing a sound and/or activating a feeder.&lt;/div&gt;&lt;div&gt;Log the action taken and its outcome in ActionSuccessLogger.&lt;/div&gt;&lt;div&gt;Every minute, adjust the dynamic signal mappings based on feedback logged in ActionSuccessLogger using DynamicSignalDecoder.&lt;/div&gt;&lt;div&gt;Maintain a 10Hz refresh rate by sleeping for 0.1 seconds at the end of each loop iteration.&lt;/div&gt;" style="rounded=1;whiteSpace=wrap;html=1;" vertex="1" parent="1">
          <mxGeometry x="626" y="183" width="394" height="230" as="geometry" />
        </mxCell>
        <mxCell id="DM7TyOLoBujSXzGujDjC-3" value="&lt;div&gt;Feedback Provision:&lt;/div&gt;&lt;div&gt;&lt;br&gt;&lt;/div&gt;&lt;div&gt;Based on the type of game event, determine the feedback to be provided.&lt;/div&gt;&lt;div&gt;If the event is associated with a positive outcome (e.g., &quot;found_item&quot;), play a reward sound and activate the feeder.&lt;/div&gt;&lt;div&gt;If the event is associated with a negative outcome (e.g., &quot;wrong_direction&quot;), play a distress sound.&lt;/div&gt;&lt;div&gt;Use the USB relay module for physical actions (e.g., activating the feeder) and the USB audio module for sound output.&lt;/div&gt;" style="rounded=1;whiteSpace=wrap;html=1;" vertex="1" parent="1">
          <mxGeometry x="1132" y="218.5" width="418" height="159" as="geometry" />
        </mxCell>
        <mxCell id="DM7TyOLoBujSXzGujDjC-4" value="&lt;div&gt;Dynamic Signal Mapping Adjustment:&lt;/div&gt;&lt;div&gt;&lt;br&gt;&lt;/div&gt;&lt;div&gt;Analyze the success rate of actions based on logged data in ActionSuccessLogger.&lt;/div&gt;&lt;div&gt;Adjust signal mapping thresholds and action mappings in DynamicSignalDecoder to optimize performance based on feedback.&lt;/div&gt;" style="rounded=1;whiteSpace=wrap;html=1;" vertex="1" parent="1">
          <mxGeometry x="1132" y="513.5" width="418" height="130" as="geometry" />
        </mxCell>
        <mxCell id="DM7TyOLoBujSXzGujDjC-8" value="&lt;div&gt;Neural Mapping Visualization:&lt;/div&gt;&lt;div&gt;&lt;br&gt;&lt;/div&gt;&lt;div&gt;Fetch neural data and process it to assess the quality of neural mappings.&lt;/div&gt;&lt;div&gt;Update a matplotlib plot to visualize the quality scores of neural mappings across different channels.&lt;/div&gt;" style="rounded=1;whiteSpace=wrap;html=1;" vertex="1" parent="1">
          <mxGeometry x="614" y="526.5" width="418" height="104" as="geometry" />
        </mxCell>
        <mxCell id="DM7TyOLoBujSXzGujDjC-9" value="&lt;div&gt;Event Monitoring and Logging:&lt;/div&gt;&lt;div&gt;&lt;br&gt;&lt;/div&gt;&lt;div&gt;Continuously listen for game events and neural signal data over ZeroMQ.&lt;/div&gt;&lt;div&gt;Log events and actions taken along with their outcomes for future analysis and adjustment.&lt;/div&gt;" style="rounded=1;whiteSpace=wrap;html=1;" vertex="1" parent="1">
          <mxGeometry x="105" y="526.5" width="418" height="104" as="geometry" />
        </mxCell>
        <mxCell id="DM7TyOLoBujSXzGujDjC-10" value="&lt;div&gt;Feedback System Initialization and Audio Playback:&lt;/div&gt;&lt;div&gt;&lt;br&gt;&lt;/div&gt;&lt;div&gt;Initialize audio playback system using Pygame or a similar library.&lt;/div&gt;&lt;div&gt;Load and play specific audio files as feedback for different game events.&lt;/div&gt;" style="rounded=1;whiteSpace=wrap;html=1;" vertex="1" parent="1">
          <mxGeometry x="105" y="755.5" width="418" height="104" as="geometry" />
        </mxCell>
        <mxCell id="DM7TyOLoBujSXzGujDjC-12" value="" style="endArrow=classic;html=1;rounded=0;exitX=1;exitY=0.5;exitDx=0;exitDy=0;entryX=0;entryY=0.5;entryDx=0;entryDy=0;" edge="1" parent="1" source="DM7TyOLoBujSXzGujDjC-1" target="DM7TyOLoBujSXzGujDjC-2">
          <mxGeometry width="50" height="50" relative="1" as="geometry">
            <mxPoint x="797" y="603.5" as="sourcePoint" />
            <mxPoint x="847" y="553.5" as="targetPoint" />
          </mxGeometry>
        </mxCell>
        <mxCell id="DM7TyOLoBujSXzGujDjC-13" value="" style="endArrow=classic;html=1;rounded=0;exitX=1;exitY=0.5;exitDx=0;exitDy=0;entryX=0;entryY=0.5;entryDx=0;entryDy=0;" edge="1" parent="1" source="DM7TyOLoBujSXzGujDjC-2" target="DM7TyOLoBujSXzGujDjC-3">
          <mxGeometry width="50" height="50" relative="1" as="geometry">
            <mxPoint x="524" y="308.5" as="sourcePoint" />
            <mxPoint x="636" y="312.5" as="targetPoint" />
          </mxGeometry>
        </mxCell>
        <mxCell id="DM7TyOLoBujSXzGujDjC-14" value="" style="endArrow=classic;html=1;rounded=0;exitX=0.5;exitY=1;exitDx=0;exitDy=0;entryX=0.5;entryY=0;entryDx=0;entryDy=0;" edge="1" parent="1" source="DM7TyOLoBujSXzGujDjC-3" target="DM7TyOLoBujSXzGujDjC-4">
          <mxGeometry width="50" height="50" relative="1" as="geometry">
            <mxPoint x="1030" y="308.5" as="sourcePoint" />
            <mxPoint x="1142" y="308.5" as="targetPoint" />
          </mxGeometry>
        </mxCell>
        <mxCell id="DM7TyOLoBujSXzGujDjC-15" value="" style="endArrow=classic;html=1;rounded=0;exitX=0;exitY=0.5;exitDx=0;exitDy=0;entryX=1;entryY=0.5;entryDx=0;entryDy=0;" edge="1" parent="1" source="DM7TyOLoBujSXzGujDjC-4" target="DM7TyOLoBujSXzGujDjC-8">
          <mxGeometry width="50" height="50" relative="1" as="geometry">
            <mxPoint x="1351" y="387.5" as="sourcePoint" />
            <mxPoint x="1351" y="523.5" as="targetPoint" />
          </mxGeometry>
        </mxCell>
        <mxCell id="DM7TyOLoBujSXzGujDjC-16" value="" style="endArrow=classic;html=1;rounded=0;exitX=0;exitY=0.5;exitDx=0;exitDy=0;entryX=1;entryY=0.5;entryDx=0;entryDy=0;" edge="1" parent="1" source="DM7TyOLoBujSXzGujDjC-8" target="DM7TyOLoBujSXzGujDjC-9">
          <mxGeometry width="50" height="50" relative="1" as="geometry">
            <mxPoint x="1361" y="397.5" as="sourcePoint" />
            <mxPoint x="1361" y="533.5" as="targetPoint" />
          </mxGeometry>
        </mxCell>
        <mxCell id="DM7TyOLoBujSXzGujDjC-17" value="" style="endArrow=classic;html=1;rounded=0;exitX=0.5;exitY=1;exitDx=0;exitDy=0;entryX=0.5;entryY=0;entryDx=0;entryDy=0;" edge="1" parent="1" source="DM7TyOLoBujSXzGujDjC-9" target="DM7TyOLoBujSXzGujDjC-10">
          <mxGeometry width="50" height="50" relative="1" as="geometry">
            <mxPoint x="624" y="588.5" as="sourcePoint" />
            <mxPoint x="533" y="588.5" as="targetPoint" />
          </mxGeometry>
        </mxCell>
        <mxCell id="DM7TyOLoBujSXzGujDjC-18" value="&lt;span style=&quot;font-size: 18px;&quot;&gt;Rewards and Mappings&lt;/span&gt;" style="text;html=1;strokeColor=none;fillColor=none;align=center;verticalAlign=middle;whiteSpace=wrap;rounded=0;" vertex="1" parent="1">
          <mxGeometry x="705" y="79" width="244" height="30" as="geometry" />
        </mxCell>
      </root>
    </mxGraphModel>
  </diagram>
</mxfile>
